<svg width="2519" height="1601" viewBox="0 0 2519 1601" fill="none" xmlns="http://www.w3.org/2000/svg">
<path d="M535.79 334.508C545.189 327.672 556.726 321.69 570.398 316.563C584.07 311.435 596.888 308.872 608.852 308.872C618.252 308.872 626.797 311.435 634.488 316.563C644.742 323.399 649.869 332.799 649.869 344.762C649.869 359.289 643.033 372.534 629.361 384.498C587.489 421.242 553.307 466.532 526.817 520.368C501.181 573.349 475.545 638.293 449.909 715.2C416.583 816.889 377.274 954.041 331.984 1126.66C327.712 1141.18 313.185 1156.56 288.403 1172.8C263.622 1188.18 240.55 1195.87 219.187 1195.87C200.387 1195.87 187.996 1187.75 182.015 1171.52C102.543 945.069 60.2443 697.255 55.1171 428.079C54.2626 410.134 67.0805 393.043 93.5709 376.807C120.916 360.571 146.552 352.453 170.478 352.453C195.26 352.453 207.651 361.853 207.651 380.652C207.651 538.74 225.168 695.119 260.204 849.789C282.422 774.59 303.785 710.5 324.294 657.52C352.493 581.467 382.402 516.95 414.019 463.969C445.637 410.134 486.227 366.98 535.79 334.508ZM1132.07 666.492C1156 732.291 1167.96 787.408 1167.96 831.844C1167.96 881.406 1154.72 927.978 1128.23 971.559C1102.59 1013.43 1067.98 1049.32 1024.4 1079.23C981.677 1109.14 934.25 1131.78 882.124 1147.16C841.961 1159.13 798.808 1165.11 752.663 1165.11C703.1 1165.11 655.674 1158.27 610.384 1144.6C565.948 1130.93 529.631 1109.99 501.432 1081.79C473.232 1052.74 459.132 1017.28 459.132 975.404C459.132 951.478 464.26 924.987 474.514 895.933C482.205 872.006 493.741 848.507 509.122 825.435C524.504 801.508 541.594 789.544 560.394 789.544C578.339 789.544 587.312 796.808 587.312 811.335C587.312 817.317 585.603 825.007 582.184 834.407C578.766 842.952 576.63 848.507 575.776 851.07C574.921 853.634 573.212 857.907 570.648 863.888C568.085 869.87 566.803 874.997 566.803 879.27C565.094 904.906 574.494 927.978 595.002 948.487C615.511 968.141 640.72 984.377 670.628 997.195C700.537 1009.16 727.882 1017.28 752.663 1021.55C778.299 1026.68 805.644 1029.24 834.698 1029.24C871.442 1029.24 906.478 1024.54 939.805 1015.14C973.131 1005.74 1001.76 991.213 1025.68 971.559C1047.9 952.759 1059.01 928.405 1059.01 898.497C1059.01 881.406 1056.02 863.888 1050.04 845.943C1044.91 827.998 1037.22 805.353 1026.97 778.008C1016.71 755.79 1009.02 734.427 1003.89 713.919C976.55 754.081 948.35 787.408 919.296 813.898C890.242 840.389 858.625 853.634 824.443 853.634C796.244 853.634 771.035 842.952 748.818 821.589C727.454 800.226 709.937 774.59 696.264 744.682C675.755 697.683 665.501 643.847 665.501 583.176C665.501 515.668 677.464 440.897 701.391 358.862C680.028 358.862 663.792 354.162 652.683 344.762C642.429 334.508 637.302 320.835 637.302 303.745C637.302 287.509 641.574 270.418 650.12 252.473C660.374 229.401 678.746 209.747 705.237 193.511C732.582 176.42 759.499 167.875 785.99 167.875C815.044 167.875 837.261 178.129 852.643 198.638C860.334 208.892 864.179 222.564 864.179 239.655C864.179 254.182 862.043 269.136 857.77 284.518C853.497 299.899 847.088 320.835 838.543 347.326C829.998 371.253 824.443 389.198 821.88 401.161C815.898 437.051 812.907 469.523 812.907 498.577C812.907 554.122 823.589 598.13 844.952 630.602C856.916 648.547 869.306 657.52 882.124 657.52C897.506 657.52 912.46 647.265 926.987 626.757C942.368 605.393 954.332 581.894 962.877 556.258C967.15 543.44 969.286 528.059 969.286 510.113C969.286 500.714 968.432 485.759 966.722 465.251C965.013 446.451 964.159 431.924 964.159 421.67C964.159 386.634 973.559 357.58 992.358 334.508C1012.01 311.435 1029.1 299.899 1043.63 299.899C1060.72 299.899 1073.54 311.435 1082.08 334.508C1090.63 356.725 1097.89 384.925 1103.87 419.106C1106.44 432.779 1107.72 446.024 1107.72 458.842C1107.72 469.951 1106.87 485.759 1105.16 506.268C1102.59 522.504 1101.31 539.595 1101.31 557.54C1101.31 579.758 1108.57 607.957 1123.1 642.138L1132.07 666.492ZM1785.44 676.747C1793.98 656.238 1798.26 637.011 1798.26 619.066C1798.26 563.521 1755.96 535.749 1671.36 535.749C1632.05 535.749 1589.32 541.731 1543.18 553.694C1497.89 564.803 1462 577.194 1435.51 590.866C1389.36 613.939 1355.18 636.584 1332.96 658.801C1311.6 680.165 1300.49 710.5 1299.64 749.809C1298.78 809.626 1297.07 862.179 1294.51 907.469C1291.95 951.905 1287.25 995.913 1280.41 1039.49C1383.81 1001.04 1479.52 952.332 1567.53 893.37C1625.64 854.916 1672.64 819.88 1708.53 788.263C1744.42 755.79 1770.06 718.618 1785.44 676.747ZM1315.02 398.597C1315.02 411.415 1314.17 432.351 1312.46 461.405C1310.75 478.496 1309.89 492.168 1309.89 502.423L1365.01 430.642C1395.77 390.479 1419.27 359.289 1435.51 337.071C1451.74 313.999 1466.7 289.218 1480.37 262.727C1450.46 269.564 1423.97 277.254 1400.9 285.8C1377.83 293.49 1356.89 303.745 1338.09 316.563C1327.84 324.253 1320.57 330.662 1316.3 335.79C1312.88 340.917 1311.17 346.471 1311.17 352.453C1311.17 357.58 1311.6 364.416 1312.46 372.962C1314.17 381.507 1315.02 390.052 1315.02 398.597ZM1800.82 363.989C1846.96 371.68 1880.72 389.625 1902.08 417.824C1924.3 446.024 1935.41 481.059 1935.41 522.931C1935.41 553.694 1929 589.585 1916.18 630.602C1882.85 735.709 1806.8 840.389 1688.02 944.641C1594.88 1024.11 1491.48 1092.9 1377.83 1151.01C1341.08 1170.66 1299.21 1190.32 1252.21 1209.97C1205.21 1229.63 1165.05 1239.45 1131.72 1239.45C1106.09 1239.45 1089 1231.76 1080.45 1216.38C1077.03 1210.4 1075.32 1203.56 1075.32 1195.87C1075.32 1185.62 1077.89 1176.22 1083.02 1167.67C1088.14 1158.27 1096.26 1145.46 1107.37 1129.22C1120.19 1112.13 1128.31 1099.31 1131.72 1090.77C1139.41 1068.55 1143.26 1037.78 1143.26 998.477V967.714C1143.26 960.877 1142.83 952.759 1141.98 943.36C1141.98 933.96 1142.4 923.705 1143.26 912.597C1150.1 820.307 1154.8 751.091 1157.36 704.946C1157.36 692.983 1157.79 682.728 1158.64 674.183C1159.5 664.783 1160.35 656.665 1161.2 649.829C1162.06 641.284 1162.91 630.602 1163.77 617.784C1164.62 604.966 1165.05 590.012 1165.05 572.921C1165.05 554.976 1163.77 537.886 1161.2 521.65C1157.79 499.432 1152.66 482.768 1145.82 471.66C1144.97 469.096 1140.7 464.396 1133.01 457.56C1126.17 449.869 1122.32 444.315 1121.47 440.897C1120.61 437.478 1120.19 432.779 1120.19 426.797C1120.19 398.597 1136.42 358.862 1168.9 307.59C1178.3 293.063 1187.69 280.672 1197.09 270.418C1206.49 260.164 1216.75 252.9 1227.86 248.628C1231.28 246.919 1236.83 246.064 1244.52 246.064C1247.08 246.064 1250.5 246.064 1254.78 246.064C1259.9 246.064 1263.75 245.637 1266.31 244.782C1275.71 241.364 1285.11 234.955 1294.51 225.555C1304.77 216.156 1310.75 210.601 1312.46 208.892C1321.86 199.492 1330.83 191.801 1339.37 185.82C1366.72 166.166 1402.61 145.657 1447.04 124.294C1491.48 102.93 1529.51 92.2488 1561.12 92.2488C1591.89 92.2488 1611.54 104.639 1620.09 129.421C1623.5 138.821 1625.21 149.075 1625.21 160.184C1625.21 192.656 1614.1 228.119 1591.89 266.573C1569.67 304.172 1540.62 346.471 1504.73 393.47C1499.6 401.161 1491.05 413.124 1479.09 429.36C1571.38 382.361 1658.54 358.862 1740.58 358.862C1762.79 358.862 1782.87 360.571 1800.82 363.989ZM2441.83 954.896C2474.3 959.168 2490.53 976.259 2490.53 1006.17C2490.53 1017.28 2487.97 1029.67 2482.84 1043.34C2478.57 1056.16 2472.59 1068.12 2464.9 1079.23C2448.66 1103.16 2429.86 1119.39 2408.5 1127.94C2387.99 1136.48 2361.07 1141.61 2327.75 1143.32C2260.24 1145.88 2211.96 1147.16 2182.9 1147.16C2099.16 1149.73 2041.05 1151.86 2008.58 1153.57C1941.93 1156.14 1883.39 1164.68 1832.97 1179.21C1812.47 1184.34 1798.37 1186.9 1790.68 1186.9C1781.28 1186.9 1774.01 1183.91 1768.88 1177.93C1763.76 1171.95 1761.19 1161.26 1761.19 1145.88C1761.19 1129.65 1764.18 1112.98 1770.17 1095.89C1777 1077.95 1787.26 1054.02 1800.93 1024.11C1812.89 1001.04 1822.29 979.677 1829.13 960.023C1830.84 954.041 1834.68 942.078 1840.67 924.133C1847.5 906.188 1852.2 889.951 1854.76 875.425C1855.62 871.152 1856.05 866.025 1856.05 860.043C1856.05 854.916 1855.19 848.934 1853.48 842.098C1851.77 834.407 1850.49 827.144 1849.64 820.307C1848.78 806.635 1850.49 793.39 1854.76 780.572C1859.89 766.899 1867.16 751.518 1876.56 734.427C1891.08 704.519 1899.63 683.156 1902.19 670.338C1917.57 596.848 1926.12 541.304 1927.83 503.704L1929.11 463.969C1929.11 438.333 1926.55 419.533 1921.42 407.57C1917.15 397.316 1909.45 387.061 1898.35 376.807C1888.09 366.553 1881.26 358.007 1877.84 351.171C1873.56 343.48 1871.43 333.226 1871.43 320.408C1871.43 305.881 1874.85 290.499 1881.68 274.263C1889.37 257.173 1898.77 241.791 1909.88 228.119C1929.54 202.483 1953.04 189.665 1980.38 189.665C2000.89 189.665 2021.4 195.647 2041.91 207.61C2063.27 219.574 2088.91 237.091 2118.81 260.164C2141.03 277.254 2157.7 289.218 2168.8 296.054C2208.97 319.981 2242.72 338.353 2270.07 351.171C2297.41 363.989 2326.46 373.389 2357.23 379.371C2371.75 381.934 2385.43 383.216 2398.25 383.216C2411.92 383.216 2425.59 381.934 2439.26 379.371C2444.39 378.516 2452.51 375.952 2463.62 371.68C2475.58 366.553 2484.55 363.989 2490.53 363.989C2496.52 363.989 2501.64 365.698 2505.92 369.116C2514.46 375.098 2518.73 384.925 2518.73 398.597C2518.73 412.27 2514.46 427.651 2505.92 444.742C2498.22 460.978 2490.11 474.65 2481.56 485.759C2455.07 518.231 2417.47 537.886 2368.76 544.722C2353.38 547.285 2337.57 548.567 2321.34 548.567C2277.76 548.567 2235.03 541.304 2193.16 526.777C2151.29 511.395 2103.43 490.032 2049.6 462.687C2044.47 528.486 2034.64 596.848 2020.12 667.774L2063.7 657.52C2108.99 646.411 2145.73 638.293 2173.93 633.166C2202.99 627.184 2231.18 624.193 2258.53 624.193C2270.49 624.193 2279.47 624.62 2285.45 625.475C2315.36 628.038 2330.31 642.993 2330.31 670.338C2330.31 683.156 2326.89 697.255 2320.06 712.637C2314.07 728.018 2306.38 742.118 2296.98 754.936C2279.89 778.008 2258.96 792.962 2234.18 799.799C2209.39 806.635 2177.35 810.48 2138.04 811.335L2094.46 813.898C2063.7 817.317 2040.2 820.307 2023.96 822.871C2007.73 824.58 1997.47 826.716 1993.2 829.28C1989.78 830.989 1986.36 834.834 1982.94 840.816C1980.38 846.798 1977.39 852.352 1973.97 857.479C1967.99 867.734 1962.44 880.979 1957.31 897.215C1952.18 913.451 1947.91 929.687 1944.49 945.923C1939.36 969.85 1935.09 986.941 1931.67 997.195C1979.53 986.086 2049.17 975.832 2140.6 966.432C2232.89 956.177 2310.66 951.05 2373.89 951.05C2401.24 951.05 2423.88 952.332 2441.83 954.896Z" fill="white"/>
</svg>
